name C:\Users\r0593348\3dpredictsim\Results\Batchsim_tmt_linear\Pog_s1_tmt_aCst_d05_k1000_ig24.mot
datacolumns 128
datarows 4
range 1.07604949 1.10833097
endheader
time	pelvis_tilt	pelvis_list	pelvis_rotation	pelvis_tx	pelvis_ty	pelvis_tz	hip_flexion_l	hip_adduction_l	hip_rotation_l	hip_flexion_r	hip_adduction_r	hip_rotation_r	knee_angle_l	knee_angle_r	ankle_angle_l	ankle_angle_r	subtalar_angle_l	subtalar_angle_r	tmt_angle_l	tmt_angle_r	mtp_angle_l	mtp_angle_r	lumbar_extension	lumbar_bending	lumbar_rotation	arm_flex_l	arm_add_l	arm_rot_l	arm_flex_r	arm_add_r	arm_rot_r	elbow_flex_l	elbow_flex_r	pro_sup_l	pro_sup_r	glut_med1_l/activation	glut_med2_l/activation	glut_med3_l/activation	glut_min1_l/activation	glut_min2_l/activation	glut_min3_l/activation	semimem_l/activation	semiten_l/activation	bifemlh_l/activation	bifemsh_l/activation	sar_l/activation	add_long_l/activation	add_brev_l/activation	add_mag1_l/activation	add_mag2_l/activation	add_mag3_l/activation	tfl_l/activation	pect_l/activation	grac_l/activation	glut_max1_l/activation	glut_max2_l/activation	glut_max3_l/activation	iliacus_l/activation	psoas_l/activation	quad_fem_l/activation	gem_l/activation	peri_l/activation	rect_fem_l/activation	vas_med_l/activation	vas_int_l/activation	vas_lat_l/activation	med_gas_l/activation	lat_gas_l/activation	soleus_l/activation	tib_post_l/activation	flex_dig_l/activation	flex_hal_l/activation	tib_ant_l/activation	per_brev_l/activation	per_long_l/activation	per_tert_l/activation	ext_dig_l/activation	ext_hal_l/activation	ercspn_l/activation	intobl_l/activation	extobl_l/activation	glut_med1_r/activation	glut_med2_r/activation	glut_med3_r/activation	glut_min1_r/activation	glut_min2_r/activation	glut_min3_r/activation	semimem_r/activation	semiten_r/activation	bifemlh_r/activation	bifemsh_r/activation	sar_r/activation	add_long_r/activation	add_brev_r/activation	add_mag1_r/activation	add_mag2_r/activation	add_mag3_r/activation	tfl_r/activation	pect_r/activation	grac_r/activation	glut_max1_r/activation	glut_max2_r/activation	glut_max3_r/activation	iliacus_r/activation	psoas_r/activation	quad_fem_r/activation	gem_r/activation	peri_r/activation	rect_fem_r/activation	vas_med_r/activation	vas_int_r/activation	vas_lat_r/activation	med_gas_r/activation	lat_gas_r/activation	soleus_r/activation	tib_post_r/activation	flex_dig_r/activation	flex_hal_r/activation	tib_ant_r/activation	per_brev_r/activation	per_long_r/activation	per_tert_r/activation	ext_dig_r/activation	ext_hal_r/activation	ercspn_r/activation	intobl_r/activation	extobl_r/activation	
          1.07604949	         -2.92799040	         -2.21944479	          5.57514298	          1.34506186	          0.85802411	         -0.00201168	        -18.00235756	         -1.88327775	          6.97139953	         31.46246336	          3.21609709	         -1.92791697	         -7.62065489	        -15.18010952	          0.53336829	          6.56607615	         11.00670657	         -2.82227577	          1.00249945	          0.03847553	         21.73455932	         -0.10983152	         -1.92098378	          0.63080016	         -1.93047791	          8.34275762	        -13.46052998	         18.36153908	         -8.58119997	        -13.51625291	          9.63500610	         34.42673243	         12.82785430	         86.51662706	         86.51662706	          0.28526055	          0.10313890	          0.06954302	          0.31151749	          0.21633257	          0.10893433	          0.05000195	          0.05000022	          0.05000015	          0.07274481	          0.10661553	          0.10366147	          0.07719981	          0.05000194	          0.05000238	          0.05000074	          0.31307715	          0.10980994	          0.05000224	          0.05000210	          0.05000125	          0.05000105	          0.33771990	          0.57567173	          0.05000029	          0.05000055	          0.05000047	          0.19491847	          0.09121900	          0.06824384	          0.05944354	          0.29777958	          0.40124003	          0.28243209	          0.25866907	          0.26669200	          0.34368607	          0.05000002	          0.05896729	          0.16270791	          0.05000018	          0.05000005	          0.05000015	          0.05000006	          0.05000007	          0.05000005	          0.05896689	          0.05896671	          0.05000013	          0.05896712	          0.05896709	          0.05001517	          0.05896690	          0.05000146	          0.19915741	          0.05000047	          0.05000137	          0.12545434	          0.28723875	          0.12398157	          0.11762831	          0.09858137	          0.05000013	          0.08199695	          0.08827632	          0.05000029	          0.12285070	          0.14833282	          0.05896726	          0.05000302	          0.21233550	          0.25718956	          0.13926505	          0.06073527	          0.15647873	          0.15453378	          0.13474537	          0.05066355	          0.05123745	          0.05592941	          0.05000001	          0.05000038	          0.05000034	          0.58194026	          0.36183704	          0.20137569	          0.38411149	          0.57113207	          0.30413700	          0.06557747	          0.09648947	          0.10213682	
          1.08680998	         -2.92082885	         -2.31144869	          5.85160855	          1.36129470	          0.85694367	         -0.00180783	        -17.78679026	         -2.17667790	          6.74117987	         30.80968323	          3.56688405	         -1.67428693	         -9.70001176	        -15.36346546	         -0.31880100	          5.94118686	         11.93889646	         -3.28754368	          0.94881491	          0.02539830	         22.74205993	         -0.06827108	         -1.72151156	          0.85482405	         -2.00238174	          8.13856103	        -13.47294601	         18.49165684	         -9.62633896	        -13.51167981	          9.52019681	         35.53150631	         12.75475991	         86.51662706	         86.51662706	          0.24188125	          0.08745467	          0.05896773	          0.26414537	          0.18343510	          0.09236882	          0.05000527	          0.05000102	          0.05000597	          0.06168259	          0.09040276	          0.19576712	          0.14532988	          0.06954396	          0.05897044	          0.05896887	          0.26546789	          0.09311378	          0.05000575	          0.05000835	          0.05001761	          0.05896726	          0.28636315	          0.52752919	          0.05896718	          0.05896819	          0.05896715	          0.16527741	          0.11703159	          0.15865106	          0.15789407	          0.25249647	          0.34022378	          0.23948286	          0.21933359	          0.22613673	          0.29142225	          0.05000003	          0.05000028	          0.14477540	          0.05000009	          0.05000003	          0.05000014	          0.05674075	          0.06413252	          0.05351516	          0.05000002	          0.05000007	          0.11545204	          0.05000008	          0.05000009	          0.05000012	          0.05000007	          0.05000015	          0.16887174	          0.05000009	          0.05000082	          0.10637673	          0.24355878	          0.33241556	          0.20936354	          0.11635564	          0.05000176	          0.06952916	          0.07489856	          0.08213382	          0.11545041	          0.12577610	          0.05000025	          0.05897239	          0.40579706	          0.21807898	          0.11808717	          0.06954206	          0.18059030	          0.19290605	          0.15985940	          0.05000042	          0.05898630	          0.05000003	          0.06264523	          0.06954280	          0.06954215	          0.49344512	          0.39510984	          0.23325157	          0.32570016	          0.52576049	          0.25788719	          0.05560516	          0.08181639	          0.08660496	
          1.09757048	         -2.90987505	         -2.40370243	          6.09953128	          1.37777019	          0.85585556	         -0.00161500	        -17.48469323	         -2.45939178	          6.49830623	         29.98766189	          3.85345715	         -1.39655023	        -11.92245210	        -15.79043241	         -1.33273052	          5.49964273	         12.80276275	         -3.77073765	          0.88166576	         -0.01190691	         23.57871917	         -0.18920358	         -1.50413241	          1.08495362	         -2.06341577	          7.84864427	        -13.48572243	         18.54221458	        -10.67222479	        -13.51216150	          9.45377984	         36.61563817	         12.71452982	         86.51662706	         86.51662706	          0.34590773	          0.07415554	          0.05000062	          0.36627017	          0.15554038	          0.07832242	          0.05152360	          0.05000025	          0.05000019	          0.05230271	          0.07665727	          0.16599706	          0.12322980	          0.05896856	          0.05000313	          0.05000166	          0.26365124	          0.07895621	          0.05000133	          0.05000223	          0.05000110	          0.05000083	          0.24281631	          0.49391689	          0.05000026	          0.05000133	          0.05000033	          0.14014383	          0.09923475	          0.13452517	          0.13388330	          0.21409953	          0.28848622	          0.20306489	          0.18597974	          0.19174843	          0.24710599	          0.05000004	          0.10063912	          0.18574064	          0.05000015	          0.05000018	          0.05000023	          0.06145184	          0.05437994	          0.05000006	          0.25753421	          0.25971532	          0.32775399	          0.35938803	          0.22817297	          0.19802308	          0.07689481	          0.06325047	          0.14665734	          0.08201521	          0.05896717	          0.09020017	          0.20652106	          0.28186549	          0.17752594	          0.10473526	          0.05000043	          0.05896014	          0.06351035	          0.17355472	          0.15362182	          0.10664958	          0.05685691	          0.05000468	          0.34408790	          0.18491606	          0.24921605	          0.05896688	          0.15312814	          0.16357107	          0.13554977	          0.05000090	          0.05001645	          0.05546847	          0.05311886	          0.05896767	          0.05896724	          0.58166380	          0.42133488	          0.21275077	          0.46243962	          0.61029628	          0.31543473	          0.06864087	          0.09990796	          0.07343502	
          1.10833097	         -2.89707856	         -2.48584398	          6.31203738	          1.39428127	          0.85479081	         -0.00139854	        -17.07694043	         -2.72372195	          6.26051302	         29.08999146	          4.12318857	         -1.12137218	        -14.29340422	        -16.15977479	         -2.47719778	          5.15661647	         13.60977065	         -4.27453001	          0.78689116	         -0.01783100	         24.14385578	         -0.19062184	         -1.29030908	          1.30950349	         -2.11434747	          7.50903694	        -13.50532321	         18.53836795	        -11.66779576	        -13.51226895	          9.44568913	         37.65459549	         12.67432877	         86.51662706	         86.51662706	          0.29330593	          0.06287879	          0.05000007	          0.31057192	          0.13188755	          0.06641204	          0.07007235	          0.05000019	          0.05000020	          0.05000010	          0.06500026	          0.18954872	          0.15560467	          0.05000206	          0.05000688	          0.06083255	          0.22355848	          0.06695177	          0.05000057	          0.05000231	          0.05000166	          0.05000128	          0.20589146	          0.44203348	          0.05000016	          0.05000056	          0.05000014	          0.11883228	          0.11406898	          0.11406904	          0.11406895	          0.18154158	          0.24461635	          0.17218497	          0.15769798	          0.16258952	          0.20952887	          0.10521979	          0.15631512	          0.15790029	          0.05000178	          0.17320038	          0.05000137	          0.09597428	          0.05000001	          0.05000004	          0.35471996	          0.37662093	          0.42659206	          0.30473671	          0.19347685	          0.27055313	          0.07490045	          0.11462280	          0.12435537	          0.06954343	          0.05000066	          0.07648356	          0.17511567	          0.23900369	          0.21898986	          0.16229895	          0.05000029	          0.05001010	          0.12333391	          0.25406470	          0.20099276	          0.16083804	          0.05000014	          0.05000013	          0.29176281	          0.15679612	          0.23813094	          0.05000004	          0.17593831	          0.22475142	          0.16965513	          0.05000002	          0.05000004	          0.05000000	          0.05000000	          0.05000060	          0.05000024	          0.64698009	          0.35726298	          0.18039804	          0.68433923	          0.62949099	          0.40417876	          0.08576760	          0.08471505	          0.06226782	
